<?xml version="1.0" encoding="UTF-8" standalone="no"?>
<!-- Created with Inkscape (http://www.inkscape.org/) -->

<svg
   xmlns:dc="http://purl.org/dc/elements/1.1/"
   xmlns:cc="http://creativecommons.org/ns#"
   xmlns:rdf="http://www.w3.org/1999/02/22-rdf-syntax-ns#"
   xmlns:svg="http://www.w3.org/2000/svg"
   xmlns="http://www.w3.org/2000/svg"
   xmlns:sodipodi="http://sodipodi.sourceforge.net/DTD/sodipodi-0.dtd"
   xmlns:inkscape="http://www.inkscape.org/namespaces/inkscape"
   id="svg2"
   version="1.1"
   inkscape:version="0.91 r13725"
   xml:space="preserve"
   width="312.5"
   height="312.5"
   viewBox="0 0 312.5 312.5"
   sodipodi:docname="Origami Crane Pattern.svg"><metadata
     id="metadata8"><rdf:RDF><cc:Work
         rdf:about=""><dc:format>image/svg+xml</dc:format><dc:type
           rdf:resource="http://purl.org/dc/dcmitype/StillImage" /><dc:title></dc:title></cc:Work></rdf:RDF></metadata><defs
     id="defs6"><clipPath
       clipPathUnits="userSpaceOnUse"
       id="clipPath18"><path
         d="M 0,250 250,250 250,0 0,0 0,250 Z"
         id="path20"
         inkscape:connector-curvature="0" /></clipPath><clipPath
       clipPathUnits="userSpaceOnUse"
       id="clipPath54"><path
         d="M 0,250 250,250 250,0 0,0 0,250 Z"
         id="path56"
         inkscape:connector-curvature="0" /></clipPath><clipPath
       clipPathUnits="userSpaceOnUse"
       id="clipPath62"><path
         d="m -84.8145,321.369 419.6285,0 0,-392.7381 -419.6285,0 0,392.7381 z"
         id="path64"
         inkscape:connector-curvature="0" /></clipPath><clipPath
       clipPathUnits="userSpaceOnUse"
       id="clipPath66"><path
         d="M 250,0 0,0 0,250 250,250 250,0 Z"
         id="path68"
         inkscape:connector-curvature="0" /></clipPath><clipPath
       clipPathUnits="userSpaceOnUse"
       id="clipPath70"><path
         d="M 250,0 0,0 0,250 250,250 250,0 Z"
         id="path72"
         inkscape:connector-curvature="0" /></clipPath><clipPath
       clipPathUnits="userSpaceOnUse"
       id="clipPath74"><path
         d="M 250,0 0,0 0,250 250,250 250,0 Z"
         id="path76"
         inkscape:connector-curvature="0" /></clipPath><clipPath
       clipPathUnits="userSpaceOnUse"
       id="clipPath78"><path
         d="M 250,0 0,0 0,250 250,250 250,0 Z"
         id="path80"
         inkscape:connector-curvature="0" /></clipPath><clipPath
       clipPathUnits="userSpaceOnUse"
       id="clipPath82"><path
         d="M 250,0 0,0 0,250 250,250 250,0 Z"
         id="path84"
         inkscape:connector-curvature="0" /></clipPath><clipPath
       clipPathUnits="userSpaceOnUse"
       id="clipPath86"><path
         d="M 250,0 0,0 0,250 250,250 250,0 Z"
         id="path88"
         inkscape:connector-curvature="0" /></clipPath><clipPath
       clipPathUnits="userSpaceOnUse"
       id="clipPath90"><path
         d="M 250,0 0,0 0,250 250,250 250,0 Z"
         id="path92"
         inkscape:connector-curvature="0" /></clipPath><clipPath
       clipPathUnits="userSpaceOnUse"
       id="clipPath94"><path
         d="M 250,0 0,0 0,250 250,250 250,0 Z"
         id="path96"
         inkscape:connector-curvature="0" /></clipPath><clipPath
       clipPathUnits="userSpaceOnUse"
       id="clipPath98"><path
         d="M 250,0 0,0 0,250 250,250 250,0 Z"
         id="path100"
         inkscape:connector-curvature="0" /></clipPath><clipPath
       clipPathUnits="userSpaceOnUse"
       id="clipPath102"><path
         d="M 250,0 0,0 0,250 250,250 250,0 Z"
         id="path104"
         inkscape:connector-curvature="0" /></clipPath><clipPath
       clipPathUnits="userSpaceOnUse"
       id="clipPath106"><path
         d="M 250,0 0,0 0,250 250,250 250,0 Z"
         id="path108"
         inkscape:connector-curvature="0" /></clipPath><clipPath
       clipPathUnits="userSpaceOnUse"
       id="clipPath110"><path
         d="M 250,0 0,0 0,250 250,250 250,0 Z"
         id="path112"
         inkscape:connector-curvature="0" /></clipPath><clipPath
       clipPathUnits="userSpaceOnUse"
       id="clipPath114"><path
         d="M 250,0 0,0 0,250 250,250 250,0 Z"
         id="path116"
         inkscape:connector-curvature="0" /></clipPath><clipPath
       clipPathUnits="userSpaceOnUse"
       id="clipPath118"><path
         d="M 250,0 0,0 0,250 250,250 250,0 Z"
         id="path120"
         inkscape:connector-curvature="0" /></clipPath><clipPath
       clipPathUnits="userSpaceOnUse"
       id="clipPath122"><path
         d="M 250,0 0,0 0,250 250,250 250,0 Z"
         id="path124"
         inkscape:connector-curvature="0" /></clipPath></defs><sodipodi:namedview
     pagecolor="#ffffff"
     bordercolor="#666666"
     borderopacity="1"
     objecttolerance="10"
     gridtolerance="10"
     guidetolerance="10"
     inkscape:pageopacity="0"
     inkscape:pageshadow="2"
     inkscape:window-width="1280"
     inkscape:window-height="737"
     id="namedview4"
     showgrid="false"
     inkscape:zoom="1.5104"
     inkscape:cx="156.25"
     inkscape:cy="156.25"
     inkscape:window-x="-8"
     inkscape:window-y="-8"
     inkscape:window-maximized="1"
     inkscape:current-layer="g128" /><g
     id="g10"
     inkscape:groupmode="layer"
     inkscape:label="origami-crane-pattern-2501"
     transform="matrix(1.25,0,0,-1.25,0,312.5)"><g
       id="g14"><g
         id="g16"
         clip-path="url(#clipPath18)"><g
           id="g38"
           transform="translate(237.6855,154)" /><g
           id="g46"
           transform="translate(87.8057,162.9097)" /></g></g><g
       id="g50"><g
         id="g52"
         clip-path="url(#clipPath54)"><g
           id="g58"><g
             id="g60" /><g
             id="g126"><g
               clip-path="url(#clipPath62)"
               id="g128"
               style="opacity:1"><g
                 transform="translate(0,203.6646)"
                 id="g130"
                 style="fill:#c7cdf1;fill-opacity:1;opacity:1"><path
                   d="M 0,0 23.686,13.855 0,15.607 0,0 Z"
                   style="fill:#c7cdf1;fill-opacity:1;fill-rule:nonzero;stroke:none"
                   id="path132"
                   inkscape:connector-curvature="0" /></g><g
                 id="g134"
                 style="opacity:1"><g
                   clip-path="url(#clipPath66)"
                   id="g136"
                   style=""><g
                     transform="translate(23.6865,217.5205)"
                     id="g138"
                     style=""><path
                       d="M 0,0 -65.414,-38.265 -40.936,-2.709 -28.594,2.114 0,0 Z"
                       style="fill:none;stroke:#ffffff;stroke-width:1.25;stroke-linecap:round;stroke-linejoin:round;stroke-miterlimit:10;stroke-dasharray:none;stroke-opacity:1"
                       id="path140"
                       inkscape:connector-curvature="0" /></g></g></g><g
                 transform="translate(0,206.6469)"
                 id="g142"
                 style="opacity:1"><path
                   d="M 0,0 0,-14.227 38.533,-2.071 45.098,3.6 48.71,9.022 17.285,11.347 0,0 Z"
                   style="fill:#e1d4e3;fill-opacity:1;fill-rule:nonzero;stroke:none"
                   id="path144"
                   inkscape:connector-curvature="0" /></g><g
                 id="g146"
                 style="fill:#e7eaf9;fill-opacity:1;opacity:1"><g
                   clip-path="url(#clipPath70)"
                   id="g148"
                   style="fill:#e7eaf9;fill-opacity:1"><g
                     transform="translate(48.71,215.6689)"
                     id="g150"
                     style="fill:#e7eaf9;fill-opacity:1"><path
                       d="m 0,0 -3.612,-5.422 -6.566,-5.672 -80.26,-25.319 L -31.425,2.324 0,0 Z"
                       style="fill:#e7eaf9;stroke:#ffffff;stroke-width:1.25;stroke-linecap:round;stroke-linejoin:round;stroke-miterlimit:10;stroke-dasharray:none;stroke-opacity:1;fill-opacity:1"
                       id="path152"
                       inkscape:connector-curvature="0" /></g></g></g><g
                 transform="translate(8.2263,250.0002)"
                 id="g154"
                 style="opacity:1"><path
                   d="m 0,0 -6.136,-18.119 9.783,11.206 18.6,-5.903 L 22.509,0 0,0 Z"
                   style="fill:#ae91c0;fill-opacity:1;fill-rule:nonzero;stroke:none"
                   id="path156"
                   inkscape:connector-curvature="0" /></g><g
                 id="g158"
                 style="fill:#c7cdf1;fill-opacity:1;opacity:1"><g
                   clip-path="url(#clipPath74)"
                   id="g160"
                   style="fill:#c7cdf1;fill-opacity:1"><g
                     transform="translate(32.1826,320.7441)"
                     id="g162"
                     style="fill:#c7cdf1;fill-opacity:1"><path
                       d="m 0,0 -1.71,-83.56 -18.6,5.903 -9.782,-11.205 L 0,0 Z"
                       style="fill:#c7cdf1;stroke:#ffffff;stroke-width:1.25;stroke-linecap:round;stroke-linejoin:round;stroke-miterlimit:10;stroke-dasharray:none;stroke-opacity:1;fill-opacity:1"
                       id="path164"
                       inkscape:connector-curvature="0" /></g></g></g><g
                 transform="translate(30.7352,250.0002)"
                 id="g166"
                 style="fill:#e7eaf9;fill-opacity:1;opacity:1"><path
                   d="M 0,0 -0.262,-12.816 11.572,-16.574 17.327,0 0,0 Z"
                   style="fill:#e7eaf9;fill-opacity:1;fill-rule:nonzero;stroke:none"
                   id="path168"
                   inkscape:connector-curvature="0" /></g><g
                 id="g170"
                 style="opacity:1"><g
                   clip-path="url(#clipPath78)"
                   id="g172"
                   style=""><g
                     transform="translate(56.4277,264.0918)"
                     id="g174"
                     style=""><path
                       d="m 0,0 -4.385,-2.627 -9.735,-28.039 -11.835,3.759 1.71,83.559 L 0,0 Z"
                       style="fill:none;stroke:#ffffff;stroke-width:1.25;stroke-linecap:round;stroke-linejoin:round;stroke-miterlimit:10;stroke-dasharray:none;stroke-opacity:1"
                       id="path176"
                       inkscape:connector-curvature="0" /></g></g></g><g
                 transform="translate(56.4944,250.0002)"
                 id="g178"
                 style="opacity:1"><path
                   d="m 0,0 0.316,-48.839 -0.109,-0.509 0.563,-0.12 2.023,4.592 L 4.294,0 0,0 Z"
                   style="fill:#6c5896;fill-opacity:1;fill-rule:nonzero;stroke:none"
                   id="path180"
                   inkscape:connector-curvature="0" /></g><g
                 id="g182"
                 style="fill:#a7b0e9;fill-opacity:1;opacity:1"><g
                   clip-path="url(#clipPath82)"
                   id="g184"
                   style="fill:#a7b0e9;fill-opacity:1"><g
                     transform="translate(60.9893,256.0098)"
                     id="g186"
                     style="fill:#a7b0e9;fill-opacity:1"><path
                       d="m 0,0 -1.702,-50.886 -2.023,-4.592 -0.563,0.121 0.109,0.508 L -4.568,5.315 0,0 Z"
                       style="fill:#a7b0e9;stroke:#ffffff;stroke-width:1.25;stroke-linecap:round;stroke-linejoin:round;stroke-miterlimit:10;stroke-dasharray:none;stroke-opacity:1;fill-opacity:1"
                       id="path188"
                       inkscape:connector-curvature="0" /></g></g></g><g
                 transform="translate(2.0907,231.8814)"
                 id="g190"
                 style="opacity:1"><path
                   d="m 0,0 -2.091,-3.291 0,-9.318 23.687,-1.752 25.023,-1.852 -9.655,8.395 L 9.782,11.206 0,0 Z"
                   style="fill:#6c5896;fill-opacity:1;fill-rule:nonzero;stroke:none"
                   id="path192"
                   inkscape:connector-curvature="0" /></g><g
                 id="g194"
                 style="fill:#a7b0e9;fill-opacity:1;opacity:1"><g
                   clip-path="url(#clipPath86)"
                   id="g196"
                   style="fill:#a7b0e9;fill-opacity:1"><g
                     transform="translate(48.71,215.6689)"
                     id="g198"
                     style="fill:#a7b0e9;fill-opacity:1"><path
                       d="m 0,0 -25.023,1.852 -28.594,2.114 3.696,7.05 3.302,5.197 9.782,11.205 L -9.655,8.395 0,0 Z"
                       style="fill:#a7b0e9;stroke:#ffffff;stroke-width:1.25;stroke-linecap:round;stroke-linejoin:round;stroke-miterlimit:10;stroke-dasharray:none;stroke-opacity:1;fill-opacity:1"
                       id="path200"
                       inkscape:connector-curvature="0" /></g></g></g><g
                 transform="translate(42.3076,233.4258)"
                 id="g202"
                 style="opacity:1"><path
                   d="M 0,0 -3.253,-9.362 -30.435,9.661 -11.835,3.759 0,0 Z"
                   style="fill:#e1d4e3;fill-opacity:1;fill-rule:nonzero;stroke:none"
                   id="path204"
                   inkscape:connector-curvature="0" /></g><g
                 transform="translate(42.3076,233.4258)"
                 id="g206"
                 style="fill:#e7eaf9;fill-opacity:1;opacity:1"><path
                   d="M 0,0 -3.253,-9.362 -30.435,9.661 -11.835,3.759 0,0 Z"
                   style="fill:#e7eaf9;stroke:#ffffff;stroke-width:1.25;stroke-linecap:round;stroke-linejoin:round;stroke-miterlimit:10;stroke-dasharray:none;stroke-opacity:1;fill-opacity:1"
                   id="path208"
                   inkscape:connector-curvature="0" /></g><g
                 transform="translate(56.8105,201.1611)"
                 id="g210"
                 style="opacity:1"><path
                   d="M 0,0 -0.109,-0.509 -18.278,3.414 -8.101,14.508 0,0 Z"
                   style="fill:#6c5896;fill-opacity:1;fill-rule:nonzero;stroke:none"
                   id="path212"
                   inkscape:connector-curvature="0" /></g><g
                 transform="translate(56.8105,201.1611)"
                 id="g214"
                 style="fill:#a7b0e9;fill-opacity:1;opacity:1"><path
                   d="M 0,0 -0.109,-0.509 -18.278,3.414 -8.101,14.508 0,0 Z"
                   style="fill:#a7b0e9;stroke:#ffffff;stroke-width:1.25;stroke-linecap:round;stroke-linejoin:round;stroke-miterlimit:10;stroke-dasharray:none;stroke-opacity:1;fill-opacity:1"
                   id="path216"
                   inkscape:connector-curvature="0" /></g><g
                 transform="translate(48.0625,250.0002)"
                 id="g218"
                 style="opacity:1"><path
                   d="M 0,0 -5.755,-16.574 -9.008,-25.937 0.647,-34.331 8.748,-48.839 8.432,0 0,0 Z"
                   style="fill:#ae91c0;fill-opacity:1;fill-rule:nonzero;stroke:none"
                   id="path220"
                   inkscape:connector-curvature="0" /></g><g
                 id="g222"
                 style="fill:#c7cdf1;fill-opacity:1;opacity:1"><g
                   clip-path="url(#clipPath90)"
                   id="g224"
                   style="fill:#c7cdf1;fill-opacity:1"><g
                     transform="translate(56.4209,261.3252)"
                     id="g226"
                     style="fill:#c7cdf1;fill-opacity:1"><path
                       d="m 0,0 0.39,-60.164 -8.101,14.508 -9.655,8.394 3.253,9.363 L -4.378,0.14 0,0 Z"
                       style="fill:#c7cdf1;stroke:#ffffff;stroke-width:1.25;stroke-linecap:round;stroke-linejoin:round;stroke-miterlimit:10;stroke-dasharray:none;stroke-opacity:1;fill-opacity:1"
                       id="path228"
                       inkscape:connector-curvature="0" /></g></g></g><g
                 transform="translate(248.7891,226.6846)"
                 id="g230"
                 style="opacity:1"><path
                   d="M 0,0 -3.696,-7.05 -16.038,-11.873 -82.979,18.122 0,0 Z"
                   style="fill:#9578b5;fill-opacity:1;fill-rule:nonzero;stroke:none"
                   id="path232"
                   inkscape:connector-curvature="0" /></g><g
                 id="g234"
                 style="fill:#c7cdf1;fill-opacity:1;opacity:1"><g
                   clip-path="url(#clipPath94)"
                   id="g236"
                   style="fill:#c7cdf1;fill-opacity:1"><g
                     transform="translate(248.7891,226.6846)"
                     id="g238"
                     style="fill:#c7cdf1;fill-opacity:1"><path
                       d="M 0,0 -3.696,-7.05 -16.038,-11.873 -82.979,18.122 0,0 Z"
                       style="fill:#c7cdf1;stroke:#ffffff;stroke-width:1.25;stroke-linecap:round;stroke-linejoin:round;stroke-miterlimit:10;stroke-dasharray:none;stroke-opacity:1;fill-opacity:1"
                       id="path240"
                       inkscape:connector-curvature="0" /></g></g></g><g
                 transform="translate(232.7508,214.8111)"
                 id="g242"
                 style="fill:#9fabff;fill-opacity:1;opacity:1"><path
                   d="m 0,0 -24.478,-35.555 41.727,24.409 0,15.607 L 12.342,4.824 0,0 Z"
                   style="fill:#9fabff;fill-opacity:1;fill-rule:nonzero;stroke:none"
                   id="path244"
                   inkscape:connector-curvature="0" /></g><g
                 id="g246"
                 style="opacity:1;fill:#c7cdf1;fill-opacity:1"><g
                   clip-path="url(#clipPath98)"
                   id="g248"
                   style="fill:#c7cdf1;fill-opacity:1"><g
                     transform="translate(273.6865,217.5205)"
                     id="g250"
                     style="fill:#c7cdf1;fill-opacity:1"><path
                       d="M 0,0 -65.414,-38.265 -40.936,-2.709 -28.594,2.114 0,0 Z"
                       style="fill:#c7cdf1;stroke:#ffffff;stroke-width:1.25;stroke-linecap:round;stroke-linejoin:round;stroke-miterlimit:10;stroke-dasharray:none;stroke-opacity:1;fill-opacity:1"
                       id="path252"
                       inkscape:connector-curvature="0" /></g></g></g><g
                 transform="translate(208.2726,179.2557)"
                 id="g254"
                 style="opacity:1"><path
                   d="m 0,0 41.728,13.164 0,14.228 L 0,0 Z"
                   style="fill:#e1d4e3;fill-opacity:1;fill-rule:nonzero;stroke:none"
                   id="path256"
                   inkscape:connector-curvature="0" /></g><g
                 id="g258"
                 style="fill:#e7eaf9;fill-opacity:1;opacity:1"><g
                   clip-path="url(#clipPath102)"
                   id="g260"
                   style="fill:#e7eaf9;fill-opacity:1"><g
                     transform="translate(298.71,215.6689)"
                     id="g262"
                     style="fill:#e7eaf9;fill-opacity:1"><path
                       d="m 0,0 -3.612,-5.422 -6.566,-5.672 -80.26,-25.319 L -31.425,2.324 0,0 Z"
                       style="fill:#e7eaf9;stroke:#ffffff;stroke-width:1.25;stroke-linecap:round;stroke-linejoin:round;stroke-miterlimit:10;stroke-dasharray:none;stroke-opacity:1;fill-opacity:1"
                       id="path264"
                       inkscape:connector-curvature="0" /></g></g></g><g
                 transform="translate(248.7888,226.6848)"
                 id="g266"
                 style="opacity:1"><path
                   d="m 0,0 -3.696,-7.05 4.907,-0.363 0,9.319 L 0,0 Z"
                   style="fill:#6c5896;fill-opacity:1;fill-rule:nonzero;stroke:none"
                   id="path268"
                   inkscape:connector-curvature="0" /></g><g
                 id="g270"
                 style="fill:#a7b0e9;fill-opacity:1;opacity:1"><g
                   clip-path="url(#clipPath106)"
                   id="g272"
                   style="fill:#a7b0e9;fill-opacity:1"><g
                     transform="translate(298.71,215.6689)"
                     id="g274"
                     style="fill:#a7b0e9;fill-opacity:1"><path
                       d="m 0,0 -25.023,1.852 -28.594,2.114 3.696,7.05 3.302,5.197 9.782,11.205 L -9.655,8.395 0,0 Z"
                       style="fill:#a7b0e9;stroke:#ffffff;stroke-width:1.25;stroke-linecap:round;stroke-linejoin:round;stroke-miterlimit:10;stroke-dasharray:none;stroke-opacity:1;fill-opacity:1"
                       id="path276"
                       inkscape:connector-curvature="0" /></g></g></g><g
                 transform="translate(119.1221,111.3516)"
                 id="g278"
                 style="fill:#9fabff;fill-opacity:1;opacity:1"><path
                   d="M 0,0 -3.696,-7.05 -16.038,-11.873 -82.979,18.122 0,0 Z"
                   style="fill:#9fabff;fill-opacity:1;fill-rule:nonzero;stroke:none"
                   id="path280"
                   inkscape:connector-curvature="0" /></g><g
                 transform="translate(119.1221,111.3516)"
                 id="g282"
                 style="opacity:1;fill:#c7cdf1;fill-opacity:1"><path
                   d="M 0,0 -3.696,-7.05 -16.038,-11.873 -82.979,18.122 0,0 Z"
                   style="fill:#c7cdf1;stroke:#ffffff;stroke-width:1.25;stroke-linecap:round;stroke-linejoin:round;stroke-miterlimit:10;stroke-dasharray:none;stroke-opacity:1;fill-opacity:1"
                   id="path284"
                   inkscape:connector-curvature="0" /></g><g
                 transform="translate(144.0195,102.1875)"
                 id="g286"
                 style="fill:#9fabff;fill-opacity:1;opacity:1"><path
                   d="M 0,0 -65.414,-38.265 -40.936,-2.709 -28.594,2.114 0,0 Z"
                   style="fill:#9fabff;fill-opacity:1;fill-rule:nonzero;stroke:none"
                   id="path288"
                   inkscape:connector-curvature="0" /></g><g
                 transform="translate(144.0195,102.1875)"
                 id="g290"
                 style="opacity:1;fill:#c7cdf1;fill-opacity:1"><path
                   d="M 0,0 -65.414,-38.265 -40.936,-2.709 -28.594,2.114 0,0 Z"
                   style="fill:#c7cdf1;stroke:#ffffff;stroke-width:1.25;stroke-linecap:round;stroke-linejoin:round;stroke-miterlimit:10;stroke-dasharray:none;stroke-opacity:1;fill-opacity:1"
                   id="path292"
                   inkscape:connector-curvature="0" /></g><g
                 transform="translate(169.043,100.3359)"
                 id="g294"
                 style="fill:#c7ceff;fill-opacity:1;opacity:1"><path
                   d="m 0,0 -3.612,-5.422 -6.566,-5.672 -80.26,-25.319 L -31.425,2.324 0,0 Z"
                   style="fill:#c7ceff;fill-opacity:1;fill-rule:nonzero;stroke:none"
                   id="path296"
                   inkscape:connector-curvature="0" /></g><g
                 transform="translate(169.043,100.3359)"
                 id="g298"
                 style="opacity:1;fill:#e7eaf9;fill-opacity:1"><path
                   d="m 0,0 -3.612,-5.422 -6.566,-5.672 -80.26,-25.319 L -31.425,2.324 0,0 Z"
                   style="fill:#e7eaf9;stroke:#ffffff;stroke-width:1.25;stroke-linecap:round;stroke-linejoin:round;stroke-miterlimit:10;stroke-dasharray:none;stroke-opacity:1;fill-opacity:1"
                   id="path300"
                   inkscape:connector-curvature="0" /></g><g
                 transform="translate(152.5156,205.4111)"
                 id="g302"
                 style="fill:#c7cdf1;fill-opacity:1;opacity:1"><path
                   d="m 0,0 -1.71,-83.56 -18.6,5.903 -9.782,-11.205 L 0,0 Z"
                   style="fill:#c7cdf1;fill-opacity:1;fill-rule:nonzero;stroke:none"
                   id="path304"
                   inkscape:connector-curvature="0" /></g><g
                 transform="translate(152.5156,205.4111)"
                 id="g306"
                 style="opacity:1"><path
                   d="m 0,0 -1.71,-83.56 -18.6,5.903 -9.782,-11.205 L 0,0 Z"
                   style="fill:none;stroke:#ffffff;stroke-width:1.25;stroke-linecap:round;stroke-linejoin:round;stroke-miterlimit:10;stroke-dasharray:none;stroke-opacity:1"
                   id="path308"
                   inkscape:connector-curvature="0" /></g><g
                 transform="translate(176.7607,148.7588)"
                 id="g310"
                 style="fill:#c7ceff;fill-opacity:1;opacity:1"><path
                   d="m 0,0 -4.385,-2.627 -9.735,-28.039 -11.835,3.759 1.71,83.559 L 0,0 Z"
                   style="fill:#c7ceff;fill-opacity:1;fill-rule:nonzero;stroke:none"
                   id="path312"
                   inkscape:connector-curvature="0" /></g><g
                 transform="translate(176.7607,148.7588)"
                 id="g314"
                 style="opacity:1;fill:#e7eaf9;fill-opacity:1"><path
                   d="m 0,0 -4.385,-2.627 -9.735,-28.039 -11.835,3.759 1.71,83.559 L 0,0 Z"
                   style="fill:#e7eaf9;stroke:#ffffff;stroke-width:1.25;stroke-linecap:round;stroke-linejoin:round;stroke-miterlimit:10;stroke-dasharray:none;stroke-opacity:1;fill-opacity:1"
                   id="path316"
                   inkscape:connector-curvature="0" /></g><g
                 transform="translate(204.5225,137.4844)"
                 id="g318"
                 style="opacity:1"><path
                   d="m 0,0 -22.366,8.335 -5.403,0.173 -4.377,0.139 10.152,5.909 L 0,0 Z"
                   style="fill:#9578b5;fill-opacity:1;fill-rule:nonzero;stroke:none"
                   id="path320"
                   inkscape:connector-curvature="0" /></g><g
                 transform="translate(204.5225,137.4844)"
                 id="g322"
                 style="fill:#c7cdf1;fill-opacity:1;opacity:1"><path
                   d="m 0,0 -22.366,8.335 -5.403,0.173 -4.377,0.139 10.152,5.909 L 0,0 Z"
                   style="fill:#c7cdf1;stroke:#ffffff;stroke-width:1.25;stroke-linecap:round;stroke-linejoin:round;stroke-miterlimit:10;stroke-dasharray:none;stroke-opacity:1;fill-opacity:1"
                   id="path324"
                   inkscape:connector-curvature="0" /></g><g
                 transform="translate(204.5225,137.4844)"
                 id="g326"
                 style="opacity:1"><path
                   d="M 0,0 -23.2,3.192 -27.769,8.508 -22.366,8.335 0,0 Z"
                   style="fill:#e1d4e3;fill-opacity:1;fill-rule:nonzero;stroke:none"
                   id="path328"
                   inkscape:connector-curvature="0" /></g><g
                 transform="translate(204.5225,137.4844)"
                 id="g330"
                 style="fill:#e7eaf9;fill-opacity:1;opacity:1"><path
                   d="M 0,0 -23.2,3.192 -27.769,8.508 -22.366,8.335 0,0 Z"
                   style="fill:#e7eaf9;stroke:#ffffff;stroke-width:1.25;stroke-linecap:round;stroke-linejoin:round;stroke-miterlimit:10;stroke-dasharray:none;stroke-opacity:1;fill-opacity:1"
                   id="path332"
                   inkscape:connector-curvature="0" /></g><g
                 transform="translate(181.3223,140.6768)"
                 id="g334"
                 style="opacity:1"><path
                   d="m 0,0 -1.702,-50.886 -2.023,-4.592 -0.563,0.121 0.109,0.508 L -4.568,5.315 0,0 Z"
                   style="fill:#6c5896;fill-opacity:1;fill-rule:nonzero;stroke:none"
                   id="path336"
                   inkscape:connector-curvature="0" /></g><g
                 transform="translate(181.3223,140.6768)"
                 id="g338"
                 style="fill:#a7b0e9;fill-opacity:1;opacity:1"><path
                   d="m 0,0 -1.702,-50.886 -2.023,-4.592 -0.563,0.121 0.109,0.508 L -4.568,5.315 0,0 Z"
                   style="fill:#a7b0e9;stroke:#ffffff;stroke-width:1.25;stroke-linecap:round;stroke-linejoin:round;stroke-miterlimit:10;stroke-dasharray:none;stroke-opacity:1;fill-opacity:1"
                   id="path340"
                   inkscape:connector-curvature="0" /></g><g
                 transform="translate(169.043,100.3359)"
                 id="g342"
                 style="opacity:1"><path
                   d="m 0,0 -25.023,1.852 -28.594,2.114 3.696,7.05 3.302,5.197 9.782,11.205 L -9.655,8.395 0,0 Z"
                   style="fill:#6c5896;fill-opacity:1;fill-rule:nonzero;stroke:none"
                   id="path344"
                   inkscape:connector-curvature="0" /></g><g
                 transform="translate(169.043,100.3359)"
                 id="g346"
                 style="fill:#a7b0e9;fill-opacity:1;opacity:1"><path
                   d="m 0,0 -25.023,1.852 -28.594,2.114 3.696,7.05 3.302,5.197 9.782,11.205 L -9.655,8.395 0,0 Z"
                   style="fill:#a7b0e9;stroke:#ffffff;stroke-width:1.25;stroke-linecap:round;stroke-linejoin:round;stroke-miterlimit:10;stroke-dasharray:none;stroke-opacity:1;fill-opacity:1"
                   id="path348"
                   inkscape:connector-curvature="0" /></g><g
                 transform="translate(162.6406,118.0928)"
                 id="g350"
                 style="opacity:1"><path
                   d="M 0,0 -3.253,-9.362 -30.435,9.661 -11.835,3.759 0,0 Z"
                   style="fill:#e1d4e3;fill-opacity:1;fill-rule:nonzero;stroke:none"
                   id="path352"
                   inkscape:connector-curvature="0" /></g><g
                 transform="translate(162.6406,118.0928)"
                 id="g354"
                 style="fill:#e7eaf9;fill-opacity:1;opacity:1"><path
                   d="M 0,0 -3.253,-9.362 -30.435,9.661 -11.835,3.759 0,0 Z"
                   style="fill:#e7eaf9;stroke:#ffffff;stroke-width:1.25;stroke-linecap:round;stroke-linejoin:round;stroke-miterlimit:10;stroke-dasharray:none;stroke-opacity:1;fill-opacity:1"
                   id="path356"
                   inkscape:connector-curvature="0" /></g><g
                 transform="translate(177.1436,85.8281)"
                 id="g358"
                 style="opacity:1"><path
                   d="M 0,0 -0.109,-0.509 -18.278,3.414 -8.101,14.508 0,0 Z"
                   style="fill:#6c5896;fill-opacity:1;fill-rule:nonzero;stroke:none"
                   id="path360"
                   inkscape:connector-curvature="0" /></g><g
                 transform="translate(177.1436,85.8281)"
                 id="g362"
                 style="fill:#a7b0e9;fill-opacity:1;opacity:1"><path
                   d="M 0,0 -0.109,-0.509 -18.278,3.414 -8.101,14.508 0,0 Z"
                   style="fill:#a7b0e9;stroke:#ffffff;stroke-width:1.25;stroke-linecap:round;stroke-linejoin:round;stroke-miterlimit:10;stroke-dasharray:none;stroke-opacity:1;fill-opacity:1"
                   id="path364"
                   inkscape:connector-curvature="0" /></g><g
                 transform="translate(176.7539,145.9922)"
                 id="g366"
                 style="fill:#c7cdf1;fill-opacity:1;opacity:1"><path
                   d="m 0,0 0.39,-60.164 -8.101,14.508 -9.655,8.394 3.253,9.363 L -4.378,0.14 0,0 Z"
                   style="fill:#c7cdf1;fill-opacity:1;fill-rule:nonzero;stroke:none"
                   id="path368"
                   inkscape:connector-curvature="0" /></g><g
                 transform="translate(176.7539,145.9922)"
                 id="g370"
                 style="opacity:1"><path
                   d="m 0,0 0.39,-60.164 -8.101,14.508 -9.655,8.394 3.253,9.363 L -4.378,0.14 0,0 Z"
                   style="fill:none;stroke:#ffffff;stroke-width:1.25;stroke-linecap:round;stroke-linejoin:round;stroke-miterlimit:10;stroke-dasharray:none;stroke-opacity:1"
                   id="path372"
                   inkscape:connector-curvature="0" /></g><g
                 transform="translate(8.226,0)"
                 id="g374"
                 style="opacity:1"><path
                   d="M 0,0 22.509,0 23.956,70.745 0,0 Z"
                   style="fill:#ae91c0;fill-opacity:1;fill-rule:nonzero;stroke:none"
                   id="path376"
                   inkscape:connector-curvature="0" /></g><g
                 id="g378"
                 style="fill:#c7cdf1;fill-opacity:1;opacity:1"><g
                   clip-path="url(#clipPath110)"
                   id="g380"
                   style="fill:#c7cdf1;fill-opacity:1"><g
                     transform="translate(32.1826,70.7441)"
                     id="g382"
                     style="fill:#c7cdf1;fill-opacity:1"><path
                       d="m 0,0 -1.71,-83.56 -18.6,5.903 -9.782,-11.205 L 0,0 Z"
                       style="fill:#c7cdf1;stroke:#ffffff;stroke-width:1.25;stroke-linecap:round;stroke-linejoin:round;stroke-miterlimit:10;stroke-dasharray:none;stroke-opacity:1;fill-opacity:1"
                       id="path384"
                       inkscape:connector-curvature="0" /></g></g></g><g
                 transform="translate(30.7352,0)"
                 id="g386"
                 style="opacity:1"><path
                   d="m 0,0 17.327,0 3.981,11.465 4.384,2.627 L 1.447,70.745 0,0 Z"
                   style="fill:#e1d4e3;fill-opacity:1;fill-rule:nonzero;stroke:none"
                   id="path388"
                   inkscape:connector-curvature="0" /></g><g
                 id="g390"
                 style="fill:#e7eaf9;fill-opacity:1;opacity:1"><g
                   clip-path="url(#clipPath114)"
                   id="g392"
                   style="fill:#e7eaf9;fill-opacity:1"><g
                     transform="translate(56.4277,14.0918)"
                     id="g394"
                     style="fill:#e7eaf9;fill-opacity:1"><path
                       d="m 0,0 -4.385,-2.627 -9.735,-28.039 -11.835,3.759 1.71,83.559 L 0,0 Z"
                       style="fill:#e7eaf9;stroke:#ffffff;stroke-width:1.25;stroke-linecap:round;stroke-linejoin:round;stroke-miterlimit:10;stroke-dasharray:none;stroke-opacity:1;fill-opacity:1"
                       id="path396"
                       inkscape:connector-curvature="0" /></g></g></g><g
                 transform="translate(84.1895,2.8174)"
                 id="g398"
                 style="opacity:1"><path
                   d="m 0,0 -22.366,8.335 -5.403,0.173 -4.377,0.139 10.152,5.909 L 0,0 Z"
                   style="fill:#9578b5;fill-opacity:1;fill-rule:nonzero;stroke:none"
                   id="path400"
                   inkscape:connector-curvature="0" /></g><g
                 transform="translate(84.1895,2.8174)"
                 id="g402"
                 style="fill:#c7cdf1;fill-opacity:1;opacity:1"><path
                   d="m 0,0 -22.366,8.335 -5.403,0.173 -4.377,0.139 10.152,5.909 L 0,0 Z"
                   style="fill:#c7cdf1;stroke:#ffffff;stroke-width:1.25;stroke-linecap:round;stroke-linejoin:round;stroke-miterlimit:10;stroke-dasharray:none;stroke-opacity:1;fill-opacity:1"
                   id="path404"
                   inkscape:connector-curvature="0" /></g><g
                 transform="translate(84.1895,2.8174)"
                 id="g406"
                 style="opacity:1"><path
                   d="M 0,0 -23.2,3.192 -27.769,8.508 -22.366,8.335 0,0 Z"
                   style="fill:#e1d4e3;fill-opacity:1;fill-rule:nonzero;stroke:none"
                   id="path408"
                   inkscape:connector-curvature="0" /></g><g
                 transform="translate(84.1895,2.8174)"
                 id="g410"
                 style="fill:#e7eaf9;fill-opacity:1;opacity:1"><path
                   d="M 0,0 -23.2,3.192 -27.769,8.508 -22.366,8.335 0,0 Z"
                   style="fill:#e7eaf9;stroke:#ffffff;stroke-width:1.25;stroke-linecap:round;stroke-linejoin:round;stroke-miterlimit:10;stroke-dasharray:none;stroke-opacity:1;fill-opacity:1"
                   id="path412"
                   inkscape:connector-curvature="0" /></g><g
                 transform="translate(56.4944,0)"
                 id="g414"
                 style="opacity:1"><path
                   d="M 0,0 4.294,0 4.495,6.01 -0.073,11.326 0,0 Z"
                   style="fill:#6c5896;fill-opacity:1;fill-rule:nonzero;stroke:none"
                   id="path416"
                   inkscape:connector-curvature="0" /></g><g
                 id="g418"
                 style="fill:#a7b0e9;fill-opacity:1;opacity:1"><g
                   clip-path="url(#clipPath118)"
                   id="g420"
                   style="fill:#a7b0e9;fill-opacity:1"><g
                     transform="translate(60.9893,6.0098)"
                     id="g422"
                     style="fill:#a7b0e9;fill-opacity:1"><path
                       d="m 0,0 -1.702,-50.886 -2.023,-4.592 -0.563,0.121 0.109,0.508 L -4.568,5.315 0,0 Z"
                       style="fill:#a7b0e9;stroke:#ffffff;stroke-width:1.25;stroke-linecap:round;stroke-linejoin:round;stroke-miterlimit:10;stroke-dasharray:none;stroke-opacity:1;fill-opacity:1"
                       id="path424"
                       inkscape:connector-curvature="0" /></g></g></g><g
                 transform="translate(48.0624,0)"
                 id="g426"
                 style="opacity:1"><path
                   d="M 0,0 8.432,0 8.359,11.326 3.981,11.465 0,0 Z"
                   style="fill:#ae91c0;fill-opacity:1;fill-rule:nonzero;stroke:none"
                   id="path428"
                   inkscape:connector-curvature="0" /></g><g
                 id="g430"
                 style="fill:#c7cdf1;fill-opacity:1;opacity:1"><g
                   clip-path="url(#clipPath122)"
                   id="g432"
                   style="fill:#c7cdf1;fill-opacity:1"><g
                     transform="translate(56.4209,11.3252)"
                     id="g434"
                     style="fill:#c7cdf1;fill-opacity:1"><path
                       d="m 0,0 0.39,-60.164 -8.101,14.508 -9.655,8.394 3.253,9.363 L -4.378,0.14 0,0 Z"
                       style="fill:#c7cdf1;stroke:#ffffff;stroke-width:1.25;stroke-linecap:round;stroke-linejoin:round;stroke-miterlimit:10;stroke-dasharray:none;stroke-opacity:1;fill-opacity:1"
                       id="path436"
                       inkscape:connector-curvature="0" /></g></g></g></g></g></g></g></g></g></svg>
